<svg id="visual" viewBox="0 0 900 600" width="900" height="600" xmlns="http://www.w3.org/2000/svg" xmlns:xlink="http://www.w3.org/1999/xlink" version="1.1"><rect x="0" y="0" width="900" height="600" fill="#2a477f"></rect><defs><linearGradient id="grad1_0" x1="33.3%" y1="0%" x2="100%" y2="100%"><stop offset="20%" stop-color="#62bfc5" stop-opacity="1"></stop><stop offset="80%" stop-color="#62bfc5" stop-opacity="1"></stop></linearGradient></defs><defs><linearGradient id="grad1_1" x1="33.3%" y1="0%" x2="100%" y2="100%"><stop offset="20%" stop-color="#62bfc5" stop-opacity="1"></stop><stop offset="80%" stop-color="#3aa2ba" stop-opacity="1"></stop></linearGradient></defs><defs><linearGradient id="grad1_2" x1="33.3%" y1="0%" x2="100%" y2="100%"><stop offset="20%" stop-color="#1c84ab" stop-opacity="1"></stop><stop offset="80%" stop-color="#3aa2ba" stop-opacity="1"></stop></linearGradient></defs><defs><linearGradient id="grad1_3" x1="33.3%" y1="0%" x2="100%" y2="100%"><stop offset="20%" stop-color="#1c84ab" stop-opacity="1"></stop><stop offset="80%" stop-color="#1a6698" stop-opacity="1"></stop></linearGradient></defs><defs><linearGradient id="grad1_4" x1="33.3%" y1="0%" x2="100%" y2="100%"><stop offset="20%" stop-color="#2a477f" stop-opacity="1"></stop><stop offset="80%" stop-color="#1a6698" stop-opacity="1"></stop></linearGradient></defs><defs><linearGradient id="grad2_0" x1="0%" y1="0%" x2="66.7%" y2="100%"><stop offset="20%" stop-color="#62bfc5" stop-opacity="1"></stop><stop offset="80%" stop-color="#62bfc5" stop-opacity="1"></stop></linearGradient></defs><defs><linearGradient id="grad2_1" x1="0%" y1="0%" x2="66.7%" y2="100%"><stop offset="20%" stop-color="#3aa2ba" stop-opacity="1"></stop><stop offset="80%" stop-color="#62bfc5" stop-opacity="1"></stop></linearGradient></defs><defs><linearGradient id="grad2_2" x1="0%" y1="0%" x2="66.7%" y2="100%"><stop offset="20%" stop-color="#3aa2ba" stop-opacity="1"></stop><stop offset="80%" stop-color="#1c84ab" stop-opacity="1"></stop></linearGradient></defs><defs><linearGradient id="grad2_3" x1="0%" y1="0%" x2="66.7%" y2="100%"><stop offset="20%" stop-color="#1a6698" stop-opacity="1"></stop><stop offset="80%" stop-color="#1c84ab" stop-opacity="1"></stop></linearGradient></defs><defs><linearGradient id="grad2_4" x1="0%" y1="0%" x2="66.7%" y2="100%"><stop offset="20%" stop-color="#1a6698" stop-opacity="1"></stop><stop offset="80%" stop-color="#2a477f" stop-opacity="1"></stop></linearGradient></defs><g transform="translate(900, 0)"><path d="M0 378.6C-42.4 378.6 -84.8 378.7 -117 360.1C-149.2 341.4 -171.3 304.2 -202.8 279.1C-234.3 254 -275.1 241.1 -292.9 212.8C-310.6 184.4 -305.3 140.6 -315.8 102.6C-326.2 64.6 -352.4 32.3 -378.6 0L0 0Z" fill="#22568c"></path><path d="M0 302.9C-33.9 302.9 -67.8 302.9 -93.6 288C-119.4 273.2 -137.1 243.4 -162.2 223.3C-187.4 203.2 -220.1 192.9 -234.3 170.2C-248.5 147.5 -244.2 112.5 -252.6 82.1C-261 51.6 -281.9 25.8 -302.9 0L0 0Z" fill="#1675a2"></path><path d="M0 227.1C-25.4 227.2 -50.9 227.2 -70.2 216C-89.5 204.9 -102.8 182.5 -121.7 167.5C-140.6 152.4 -165.1 144.7 -175.7 127.7C-186.4 110.7 -183.2 84.4 -189.5 61.6C-195.7 38.7 -211.4 19.4 -227.1 0L0 0Z" fill="#2993b3"></path><path d="M0 151.4C-17 151.4 -33.9 151.5 -46.8 144C-59.7 136.6 -68.5 121.7 -81.1 111.6C-93.7 101.6 -110 96.5 -117.1 85.1C-124.3 73.8 -122.1 56.3 -126.3 41C-130.5 25.8 -141 12.9 -151.4 0L0 0Z" fill="#4db0c0"></path><path d="M0 75.7C-8.5 75.7 -17 75.7 -23.4 72C-29.8 68.3 -34.3 60.8 -40.6 55.8C-46.9 50.8 -55 48.2 -58.6 42.6C-62.1 36.9 -61.1 28.1 -63.2 20.5C-65.2 12.9 -70.5 6.5 -75.7 0L0 0Z" fill="#62bfc5"></path></g><g transform="translate(0, 600)"><path d="M0 -378.6C30 -346.6 60.1 -314.6 99.2 -305.3C138.3 -296 186.5 -309.4 211.6 -291.2C236.7 -273.1 238.6 -223.4 263.7 -191.6C288.8 -159.8 337.1 -145.9 360.1 -117C383 -88 380.8 -44 378.6 0L0 0Z" fill="#22568c"></path><path d="M0 -302.9C24 -277.3 48.1 -251.7 79.4 -244.2C110.7 -236.8 149.2 -247.5 169.3 -233C189.3 -218.5 190.9 -178.7 211 -153.3C231.1 -127.9 269.6 -116.8 288 -93.6C306.4 -70.4 304.7 -35.2 302.9 0L0 0Z" fill="#1675a2"></path><path d="M0 -227.1C18 -208 36 -188.8 59.5 -183.2C83 -177.6 111.9 -185.6 127 -174.7C142 -163.9 143.2 -134 158.2 -115C173.3 -95.9 202.2 -87.6 216 -70.2C229.8 -52.8 228.5 -26.4 227.1 0L0 0Z" fill="#2993b3"></path><path d="M0 -151.4C12 -138.6 24 -125.8 39.7 -122.1C55.3 -118.4 74.6 -123.8 84.6 -116.5C94.7 -109.2 95.5 -89.4 105.5 -76.6C115.5 -63.9 134.8 -58.4 144 -46.8C153.2 -35.2 152.3 -17.6 151.4 0L0 0Z" fill="#4db0c0"></path><path d="M0 -75.7C6 -69.3 12 -62.9 19.8 -61.1C27.7 -59.2 37.3 -61.9 42.3 -58.2C47.3 -54.6 47.7 -44.7 52.7 -38.3C57.8 -32 67.4 -29.2 72 -23.4C76.6 -17.6 76.2 -8.8 75.7 0L0 0Z" fill="#62bfc5"></path></g></svg>